<?xml version="1.0" encoding="utf-8"?>
<!-- Generator: Adobe Illustrator 19.0.0, SVG Export Plug-In . SVG Version: 6.00 Build 0)  -->
<svg version="1.1" id="Layer_1" xmlns="http://www.w3.org/2000/svg" xmlns:xlink="http://www.w3.org/1999/xlink" x="0px" y="0px"
	 viewBox="0 0 167 165" style="enable-background:new 0 0 167 165;" xml:space="preserve">
<style type="text/css">
	.st0{fill:#EB4A4A;}
</style>
<g id="XMLID_94_">
	<path id="XMLID_97_" class="st0" d="M34.1,87c0,0,35-23.7,64.2,0c29.2,23.7,57.7,5.5,57.7,5.5l-31.7-23.3l26.3-34.1
		c0,0-28.5,18.2-57.7-5.5c-29.2-23.7-64.2,0-64.2,0"/>
	<g id="XMLID_95_">
		<path id="XMLID_96_" class="st0" d="M27.3,11.9c6.5-1.4,12.9,3.1,14.5,10.2l26.1,118.7c1.5,7-2.4,13.9-8.9,15.3l0,0
			c-6.5,1.4-12.9-3.1-14.5-10.2L18.4,27.2C16.9,20.2,20.9,13.4,27.3,11.9L27.3,11.9z"/>
	</g>
</g>
</svg>
