<?xml version="1.0" encoding="utf-8"?>
<!-- Generator: Adobe Illustrator 19.0.0, SVG Export Plug-In . SVG Version: 6.00 Build 0)  -->
<svg version="1.1" id="Layer_1" xmlns="http://www.w3.org/2000/svg" xmlns:xlink="http://www.w3.org/1999/xlink" x="0px" y="0px"
	 viewBox="0 0 167 165" style="enable-background:new 0 0 167 165;" xml:space="preserve">
<style type="text/css">
	.st0{fill:#F48B8C;}
	.st1{fill:#EB4A4A;}
</style>
<g id="XMLID_55_">
	<g id="XMLID_65_">
		<path id="XMLID_68_" class="st0" d="M95.2,86.3c-1.2-2.2-2.6-6-2.1-10.4c6.5-3.5,11-11.3,11-20.4c0-12.4-8.4-22.4-18.8-22.4
			c-10.4,0-18.8,10-18.8,22.4c0,8.7,4.2,16.3,10.2,20c-0.1,2.8-0.4,7.8-2.4,10.8c-23.9-1-23.1,15.3-23.1,15.3h67.9
			C118.2,86.8,100,86.2,95.2,86.3z"/>
		<path id="XMLID_67_" class="st1" d="M62.3,31.2h45.1l-3.8,14.7c0,0-19.5-4.9-37.1,0L62.3,31.2z"/>
		<path id="XMLID_66_" class="st1" d="M71.2,30c0,0,12.4-11.6,28.3,0"/>
	</g>
	<g id="XMLID_61_">
		<path id="XMLID_64_" class="st0" d="M137.8,88.8c-1-1.9-2.2-5.1-1.8-8.9c5.5-3,9.4-9.7,9.4-17.4c0-10.6-7.2-19.1-16-19.1
			c-8.8,0-16,8.5-16,19.1c0,7.4,3.5,13.9,8.7,17c0,2.4-0.4,6.7-2,9.2c-20.4-0.9-19.7,13-19.7,13h57.9
			C157.4,89.2,141.9,88.7,137.8,88.8z"/>
		<path id="XMLID_63_" class="st1" d="M109.8,41.8h38.5L145,54.3c0,0-16.6-4.2-31.6,0L109.8,41.8z"/>
		<path id="XMLID_62_" class="st1" d="M117.3,40.8c0,0,10.6-9.9,24.1,0"/>
	</g>
	<g id="XMLID_57_">
		<path id="XMLID_60_" class="st0" d="M45.6,88.8c-1-1.9-2.2-5.1-1.8-8.9c5.5-3,9.4-9.7,9.4-17.4c0-10.6-7.2-19.1-16-19.1
			c-8.8,0-16,8.6-16,19.1c0,7.4,3.5,13.9,8.7,17c0,2.4-0.4,6.7-2,9.2c-20.4-0.9-19.7,13-19.7,13h57.9C65.3,89.2,49.7,88.7,45.6,88.8
			z"/>
		<path id="XMLID_59_" class="st1" d="M17.6,41.8h38.5l-3.3,12.5c0,0-16.6-4.2-31.6,0L17.6,41.8z"/>
		<path id="XMLID_58_" class="st1" d="M25.1,40.8c0,0,10.6-9.9,24.1,0"/>
	</g>
	<rect id="XMLID_56_" x="8.7" y="107.3" class="st1" width="150.1" height="22.5"/>
</g>
</svg>
