<?xml version="1.0" encoding="utf-8"?>
<!-- Generator: Adobe Illustrator 19.0.0, SVG Export Plug-In . SVG Version: 6.00 Build 0)  -->
<svg version="1.1" id="Layer_1" xmlns="http://www.w3.org/2000/svg" xmlns:xlink="http://www.w3.org/1999/xlink" x="0px" y="0px"
	 viewBox="0 0 586 191" style="enable-background:new 0 0 586 191;" xml:space="preserve">
<style type="text/css">
	.st0{fill:#EB4A4A;}
</style>
<g id="XMLID_81_">
	<path id="XMLID_92_" class="st0" d="M296.3,89c-3.7-2.4-8-3.6-13-3.6c-5.3,0-9.9,1.1-13.9,3.4c-2.2,1.2-4.3,2.7-6.3,4.4
		c-0.2-1.8-1-3.5-2.3-4.8c-1.6-1.6-3.5-2.4-5.7-2.4c-2.2,0-4.2,0.8-5.7,2.4c-0.1,0.1-0.1,0.1-0.1,0.2c-0.2-0.3-0.4-0.6-0.7-0.8
		c-1.5-1.5-3.4-2.3-5.6-2.3h-0.6c-6,0-11.6,2.5-16.7,7.4c-0.3-1.7-1-3.2-2.3-4.4c-1.6-1.6-3.5-2.4-5.7-2.4c-2.2,0-4.2,0.8-5.7,2.4
		c-0.2,0.2-0.4,0.5-0.6,0.7c-0.1-0.2-0.3-0.3-0.4-0.5c-1.4-1.4-3.1-2.1-5.2-2.1h-12.7v-4.2c0-4.1,0.9-5.8,1.7-6.5
		c1.2-1.1,3.1-1.6,5.7-1.6c0.1,0,0.6,0,2.9,0.3c1.1,0.3,2.2,0.4,3.2,0.4c1.9,0,3.6-0.7,5-2.2c1.3-1.4,2-3.1,2-4.9
		c0-1.4-0.4-2.7-1.2-3.9c-0.8-1.1-1.8-2-2.9-2.6c-3.6-1.8-7.5-2.7-11.7-2.7c-3.5,0-6.8,0.8-9.9,2.4c-3.2,1.6-5.9,4.3-7.9,7.8
		c-1.9,3.5-2.9,7.9-2.9,13.2v4.5h-4.7c-1.9,0-3.7,0.7-5.1,2c-1.4,1.4-2.2,3.2-2.2,5.2c0,2,0.7,3.7,2.1,5.1c1.4,1.4,3.2,2.1,5.1,2.1
		h4.7v45.1c0,2.2,0.8,4.1,2.3,5.7c1.5,1.5,3.5,2.3,5.7,2.3c2.2,0,4.1-0.8,5.7-2.3c1.6-1.5,2.4-3.5,2.4-5.7v-45.1h12.7
		c1.5,0,2.8-0.4,3.9-1.1v46.2c0,2.2,0.8,4.1,2.3,5.7c1.5,1.5,3.5,2.3,5.7,2.3c2.2,0,4.1-0.8,5.7-2.3c1.6-1.5,2.4-3.5,2.4-5.7v-36.2
		c1.9-2.7,4.2-4.9,6.9-6.4c2.8-1.7,6-2.5,9.4-2.5h0.6c1.7,0,3.1-0.4,4.4-1.2v46.3c0,2.2,0.8,4.1,2.3,5.7c1.5,1.5,3.5,2.3,5.7,2.3
		c2.2,0,4.1-0.8,5.7-2.3c1.6-1.5,2.4-3.5,2.4-5.7v-35.6c2.5-3,5.2-5.5,7.9-7.3c2.8-1.8,5.9-2.7,9.5-2.7c7.5,0,10.9,3.8,10.9,12.3
		v33.3c0,2.2,0.8,4.1,2.3,5.7c1.5,1.5,3.5,2.3,5.7,2.3c2.2,0,4.1-0.8,5.7-2.3c1.6-1.5,2.4-3.5,2.4-5.7v-34.5c0-4.7-1-9.1-2.9-13.1
		C302.8,94.6,300,91.4,296.3,89z"/>
	<path id="XMLID_89_" class="st0" d="M366.6,59.3c-2.2,0-4.1,0.8-5.7,2.3c-1.6,1.5-2.4,3.5-2.4,5.8v24.2c-5.4-4.1-11.5-6.2-18.3-6.2
		c-5.4,0-10.7,1.4-15.5,4.2c-4.9,2.8-8.9,6.8-11.9,12.1c-3,5.3-4.5,11.5-4.5,18.4c0,7,1.5,13.2,4.5,18.4c3,5.3,7,9.3,11.9,12.1
		c4.9,2.8,10.1,4.2,15.5,4.2c6.9,0,13.1-2.1,18.6-6.4c0.4,1.3,1.1,2.5,2.1,3.5c1.6,1.5,3.5,2.3,5.7,2.3c2.2,0,4.1-0.8,5.7-2.3
		c1.5-1.5,2.3-3.5,2.3-5.7V67.4c0-2.2-0.8-4.1-2.3-5.7C370.8,60.2,368.8,59.3,366.6,59.3z M351.2,137.3c-2.9,1.5-6.1,2.2-9.4,2.2
		c-5.3,0-9.5-1.6-12.6-4.9c-3.2-3.3-4.8-8.2-4.8-14.4c0-6.3,1.6-11.1,4.8-14.4c3.2-3.3,7.3-4.9,12.6-4.9c3.3,0,6.5,0.7,9.4,2.2
		c2.7,1.4,5.2,3.2,7.3,5.4v23.5C356.4,134.1,353.9,135.9,351.2,137.3L351.2,137.3z"/>
	<path id="XMLID_88_" class="st0" d="M415.6,116.4c-3.1-1.2-7.1-2.4-12-3.7c-4.6-1-7.9-2-10-3.1c-1.4-0.7-2-1.6-2-3.1
		c0-1,0.3-2.6,2.5-4c2-1.3,5-2,8.9-2c4.3,0,8.7,0.7,13.1,2.1l0.1,0c0.9,0.2,1.6,0.3,2.2,0.3c2,0,3.9-0.8,5.3-2.2
		c1.4-1.4,2.1-3.2,2.1-5.1c0-1.5-0.5-2.9-1.3-4.2c-0.9-1.4-2.2-2.3-3.9-2.8c-5.7-2.1-11.9-3.2-18.4-3.2c-8.2,0-14.7,2-19.2,6
		c-4.6,4-7,9.3-7,15.7c0,4.7,1.3,8.5,4,11.5c2.5,2.8,5.5,4.8,9,6.2c3.2,1.3,7.3,2.5,12.1,3.6c4.5,1.2,7.8,2.2,9.7,3.1
		c1.7,0.8,1.7,1.6,1.7,2c0,1.7,0,6.1-11,6.1c-3,0-5.8-0.3-8.1-0.9c-2.5-0.6-4.9-1.5-7.4-2.5c-1-0.5-2.1-0.7-3.2-0.7
		c-2.1,0-3.9,0.8-5.2,2.3c-1.3,1.4-2,3.2-2,5.1c0,2.5,1.1,4.6,3.1,6.1l0.2,0.1c7,3.8,14.8,5.8,23.3,5.8c8,0,14.4-1.9,18.9-5.7
		c4.7-3.9,7-8.9,7-14.8c0-4.8-1.3-8.7-3.8-11.7C421.9,119.8,419,117.7,415.6,116.4z"/>
	<path id="XMLID_87_" class="st0" d="M477.9,89c-3.7-2.4-8-3.6-13-3.6c-5.3,0-9.9,1.1-13.9,3.4c-2.2,1.2-4.2,2.7-6.2,4.4V67.4
		c0-2.2-0.8-4.2-2.4-5.7c-1.6-1.6-3.5-2.4-5.7-2.4c-2.2,0-4.2,0.8-5.7,2.4c-1.5,1.5-2.3,3.5-2.3,5.7v78.8c0,2.2,0.8,4.1,2.3,5.7
		s3.5,2.3,5.7,2.3c2.2,0,4.1-0.8,5.7-2.3c1.6-1.5,2.4-3.5,2.4-5.7v-35.6c2.5-3,5.2-5.5,7.9-7.3c2.8-1.8,5.9-2.7,9.5-2.7
		c7.5,0,10.9,3.8,10.9,12.3v33.3c0,2.2,0.8,4.1,2.3,5.7c1.5,1.5,3.5,2.3,5.7,2.3c2.2,0,4.1-0.8,5.7-2.3c1.6-1.5,2.4-3.5,2.4-5.7
		v-34.5c0-4.7-1-9.1-2.9-13.1C484.4,94.6,481.6,91.4,477.9,89z"/>
	<path id="XMLID_86_" class="st0" d="M502.2,61.2h-0.7c-2.4,0-4.4,0.9-6.1,2.6c-1.7,1.7-2.6,3.8-2.6,6.1v0.5c0,2.4,0.9,4.4,2.6,6.1
		c1.7,1.7,3.8,2.6,6.1,2.6h0.7c2.4,0,4.4-0.9,6.1-2.6c1.7-1.7,2.6-3.8,2.6-6.1v-0.5c0-2.4-0.9-4.4-2.6-6.1
		C506.6,62,504.5,61.2,502.2,61.2z"/>
	<path id="XMLID_85_" class="st0" d="M501.7,86.1c-2.2,0-4.2,0.8-5.7,2.4c-1.5,1.6-2.3,3.5-2.3,5.7v52.1c0,2.2,0.8,4.1,2.3,5.7
		s3.5,2.3,5.7,2.3c2.2,0,4.1-0.8,5.7-2.3c1.6-1.5,2.4-3.5,2.4-5.7V94.1c0-2.3-0.8-4.3-2.3-5.8C505.9,86.9,503.9,86.1,501.7,86.1z"/>
	<path id="XMLID_82_" class="st0" d="M576.5,101.7c-3-5.3-7-9.3-11.9-12.1c-4.9-2.8-10.1-4.2-15.5-4.2c-6.9,0-13.1,2.1-18.6,6.4
		c-0.4-1.3-1.1-2.5-2.1-3.5c-1.5-1.5-3.5-2.3-5.7-2.3c-2.2,0-4.1,0.8-5.7,2.3c-1.5,1.5-2.3,3.5-2.3,5.7v80c0,2.2,0.8,4.1,2.3,5.7
		c1.5,1.6,3.5,2.4,5.7,2.4c2.3,0,4.3-0.8,5.8-2.3c1.5-1.5,2.3-3.5,2.3-5.8v-25.4c5.4,4.1,11.5,6.2,18.3,6.2c5.4,0,10.7-1.4,15.5-4.2
		c4.9-2.8,8.9-6.8,11.9-12.1c3-5.3,4.5-11.5,4.5-18.4C581.1,113.2,579.5,107,576.5,101.7z M547.6,100.8c5.3,0,9.5,1.6,12.6,4.9
		c3.2,3.3,4.8,8.2,4.8,14.4c0,6.3-1.6,11.1-4.8,14.4v0c-3.2,3.3-7.3,4.9-12.6,4.9c-3.3,0-6.5-0.7-9.4-2.2c-2.7-1.4-5.2-3.2-7.3-5.4
		v-23.5c2.1-2.2,4.6-4,7.3-5.4C541.1,101.5,544.3,100.8,547.6,100.8z"/>
</g>
<g id="XMLID_2_">
	<path id="XMLID_5_" class="st0" d="M89.6,111.6c-0.2,0.9,0.5,1.7,1.4,1.8c2.4,0.2,4.6,0.3,6.8,0.6c8.5,1.1,16.9,2.4,25.4,3.5
		c6.2,0.8,11,5.8,11.6,12.1c0.5,4.9,0.6,9.8-0.1,14.8c-0.4-0.1-0.7-0.1-0.9-0.2c-11.6-7.1-24.5-10.8-37.6-14.2
		c-17.8-4.6-35.9-7.8-54.1-10.3c-10.4-1.4-20.8-2.6-31.1-3.9c-0.8-0.1-1.6-0.3-2.5-0.5c0-0.2,0-0.4,0-0.6c4.4-0.5,8.9-1.2,13.3-1.6
		c4-0.4,8.1-0.6,12.3-0.9c0.7-0.1,1.3-0.6,1.4-1.3c0.2-2.5,0.5-5,0.8-7.5C38.6,83.2,47.3,66.1,61.8,52c10.9-10.6,23.7-18.4,38-23.6
		c1.4-0.5,2-1.3,2.4-2.6c1.3-5.1,2.8-10.1,4.2-15.1c0.1-0.3,0.3-0.6,0.9-0.7C101.4,43.7,95.5,77.5,89.6,111.6z M85.5,88.6
		c0.2,1.7,2.7,1.8,3,0.1c1.5-8.4,3-16.7,4.8-25c1.7-8.2,3.6-16.4,5.6-24.9c0.4-1.7-2-2.6-2.8-1.1C87.1,53.8,83.5,70.6,85.5,88.6z
		 M83.8,112.7c0.8,0,1.4-0.6,1.5-1.3c0.2-2.2,0.5-4.5,0.8-6.8c0.2-1.4-0.3-1.8-1.5-1.8c-3.4,0.1-6.8-0.2-10.1,0.3
		c-11.2,1.5-22,4.6-32.7,7.9c-1.2,0.4-2.4,0.8-3,1C53.4,112.1,68.4,112.4,83.8,112.7z"/>
	<path id="XMLID_4_" class="st0" d="M162.2,123.7c-3.3-0.6-6.7-1.1-9.9-1.8c-13.9-3.2-27.8-6.4-41.6-9.9c-3.9-1-7.5-3-11.1-4.6
		c-1.8-0.8-2.6-2.3-2.5-4.5c0.9-12.3,1.5-24.7,2.6-37c1.4-15,4.1-29.8,8.4-44.3c0.2-0.7,0.4-1.4,1.2-2.1c0.3,0.9,0.6,1.8,0.8,2.7
		c6.5,24.2,14.6,47.7,26.8,69.7c5.6,10.2,12.1,19.7,20.9,27.4c0.8,0.7,1.6,1.4,2.5,2c0.8,0.6,1.5,1.2,2.3,1.8
		C162.4,123.3,162.3,123.5,162.2,123.7z"/>
	<path id="XMLID_3_" class="st0" d="M17.7,119.9c2.1,0.3,4.2,0.6,6.3,1c22,4.4,44.1,8.5,66,13.2c10,2.1,19.9,5.3,29.8,8
		c0.2,0.1,0.4,0.1,0.5,0.2c6.9,2.9,6.9,2,6.8,9.6c0,4.6-2.7,7.8-7.4,9.2c-5.3,1.6-10.7,1-16,0.6c-7.3-0.6-14.5-1.4-21.8-1.9
		c-10.4-0.8-20.8-1.6-30.6-5.1c-3.2-1.1-6.1-2.8-9-4.6c-2.4-1.5-3.5-4-4.3-6.8c-0.9-3-2.2-6-4-8.6c-3.8-5.4-9.1-9.2-14.5-12.9
		c-0.7-0.5-1.3-0.9-2-1.4C17.6,120.2,17.6,120,17.7,119.9z"/>
</g>
</svg>
