<?xml version="1.0" encoding="utf-8"?>
<!-- Generator: Adobe Illustrator 19.0.0, SVG Export Plug-In . SVG Version: 6.00 Build 0)  -->
<svg version="1.1" id="Layer_1" xmlns="http://www.w3.org/2000/svg" xmlns:xlink="http://www.w3.org/1999/xlink" x="0px" y="0px"
	 viewBox="0 0 167 165" style="enable-background:new 0 0 167 165;" xml:space="preserve">
<style type="text/css">
	.st0{fill:#EB4A4A;}
</style>
<g id="XMLID_69_">
	<path id="XMLID_79_" class="st0" d="M45,121.2c-21.8-20.8-22.7-55.5-1.9-77.3C63.8,22,98.5,21.2,120.4,42
		c21.8,20.8,22.7,55.5,1.9,77.3C101.5,141.1,66.8,142,45,121.2z M108,54.9c-14.7-14-38-13.4-52,1.3c-14,14.7-13.4,38,1.3,52
		c14.7,14,38,13.4,52-1.3C123.2,92.2,122.7,68.9,108,54.9z"/>
	<path id="XMLID_78_" class="st0" d="M36.9,135.8c-1.6,1.7-4.4,1.8-6.1,0.2l0,0c-1.7-1.6-1.8-4.4-0.1-6.1L71.5,87
		c1.6-1.7,4.4-1.8,6.1-0.2l0,0c1.7,1.6,1.8,4.4,0.2,6.1L36.9,135.8z"/>
	<path id="XMLID_77_" class="st0" d="M93.8,76.1c-1.6,1.7-4.4,1.8-6.1,0.2l0,0c-1.7-1.6-1.8-4.4-0.1-6.1l40.8-42.9
		c1.6-1.7,4.4-1.8,6.1-0.1l0,0c1.7,1.6,1.8,4.4,0.2,6.1L93.8,76.1z"/>
	<path id="XMLID_76_" class="st0" d="M88.1,92.7c-1.7-1.6-1.8-4.4-0.1-6.1l0,0c1.6-1.7,4.4-1.8,6.1-0.1l42.9,40.8
		c1.7,1.6,1.8,4.4,0.2,6.1l0,0c-1.6,1.7-4.4,1.8-6.1,0.1L88.1,92.7z"/>
	<path id="XMLID_75_" class="st0" d="M95,85.6c-2.4,0.1-4.4-1.8-4.4-4.2l0,0C90.5,79,92.4,77,94.7,77l59.2-1.5
		c2.4-0.1,4.4,1.8,4.4,4.2l0,0c0.1,2.4-1.8,4.4-4.2,4.4L95,85.6z"/>
	<path id="XMLID_74_" class="st0" d="M86.7,69.2c0.1,2.4-1.8,4.4-4.2,4.4l0,0c-2.4,0.1-4.4-1.8-4.4-4.2l-1.5-59.2
		c-0.1-2.4,1.8-4.4,4.2-4.4l0,0c2.4-0.1,4.4,1.8,4.4,4.2L86.7,69.2z"/>
	<path id="XMLID_73_" class="st0" d="M70.3,77.5c2.4-0.1,4.4,1.8,4.4,4.2l0,0c0.1,2.4-1.8,4.3-4.2,4.4l-59.2,1.5
		C9,87.7,7,85.8,7,83.4l0,0C6.9,81,8.8,79.1,11.2,79L70.3,77.5z"/>
	<path id="XMLID_72_" class="st0" d="M88.7,152.8c0.1,2.4-1.8,4.4-4.2,4.4l0,0c-2.4,0.1-4.4-1.8-4.4-4.2l-1.5-59.2
		c-0.1-2.4,1.8-4.4,4.2-4.4l0,0c2.4-0.1,4.4,1.8,4.4,4.2L88.7,152.8z"/>
	<path id="XMLID_71_" class="st0" d="M28.4,35.8c-1.7-1.6-1.8-4.4-0.1-6.1l0,0c1.6-1.7,4.4-1.8,6.1-0.2l42.9,40.8
		c1.7,1.6,1.8,4.4,0.1,6.1l0,0c-1.6,1.7-4.4,1.8-6.1,0.2L28.4,35.8z"/>
	<path id="XMLID_70_" class="st0" d="M93.9,92.2C88,98.4,78.2,98.6,72,92.8c-6.2-5.9-6.4-15.7-0.5-21.9c5.9-6.2,15.7-6.4,21.9-0.5
		C99.5,76.2,99.7,86,93.9,92.2z"/>
</g>
</svg>
