<?xml version="1.0" encoding="utf-8"?>
<!-- Generator: Adobe Illustrator 19.0.0, SVG Export Plug-In . SVG Version: 6.00 Build 0)  -->
<svg version="1.1" id="Layer_1" xmlns="http://www.w3.org/2000/svg" xmlns:xlink="http://www.w3.org/1999/xlink" x="0px" y="0px"
	 viewBox="0 0 167 165" style="enable-background:new 0 0 167 165;" xml:space="preserve">
<style type="text/css">
	.st0{fill:#EB4A4A;}
</style>
<g id="XMLID_2_">
	<path id="XMLID_5_" class="st0" d="M87.6,107.6c-0.2,0.9,0.5,1.7,1.4,1.8c2.4,0.2,4.6,0.3,6.8,0.6c8.5,1.1,16.9,2.4,25.4,3.5
		c6.2,0.8,11,5.8,11.6,12.1c0.5,4.9,0.6,9.8-0.1,14.8c-0.4-0.1-0.7-0.1-0.9-0.2c-11.6-7.1-24.5-10.8-37.6-14.2
		c-17.8-4.6-35.9-7.8-54.1-10.3c-10.4-1.4-20.8-2.6-31.1-3.9c-0.8-0.1-1.6-0.3-2.5-0.5c0-0.2,0-0.4,0-0.6c4.4-0.5,8.9-1.2,13.3-1.6
		c4-0.4,8.1-0.6,12.3-0.9c0.7-0.1,1.3-0.6,1.4-1.3c0.2-2.5,0.5-5,0.8-7.5C36.6,79.2,45.3,62.1,59.8,48c10.9-10.6,23.7-18.4,38-23.6
		c1.4-0.5,2-1.3,2.4-2.6c1.3-5.1,2.8-10.1,4.2-15.1c0.1-0.3,0.3-0.6,0.9-0.7C99.4,39.7,93.5,73.5,87.6,107.6z M83.5,84.6
		c0.2,1.7,2.7,1.8,3,0.1c1.5-8.4,3-16.7,4.8-25c1.7-8.2,3.6-16.4,5.6-24.9c0.4-1.7-2-2.6-2.8-1.1C85.1,49.8,81.5,66.6,83.5,84.6z
		 M81.8,108.7c0.8,0,1.4-0.6,1.5-1.3c0.2-2.2,0.5-4.5,0.8-6.8c0.2-1.4-0.3-1.8-1.5-1.8c-3.4,0.1-6.8-0.2-10.1,0.3
		c-11.2,1.5-22,4.6-32.7,7.9c-1.2,0.4-2.4,0.8-3,1C51.4,108.1,66.4,108.4,81.8,108.7z"/>
	<path id="XMLID_4_" class="st0" d="M160.2,119.7c-3.3-0.6-6.7-1.1-9.9-1.8c-13.9-3.2-27.8-6.4-41.6-9.9c-3.9-1-7.5-3-11.1-4.6
		c-1.8-0.8-2.6-2.3-2.5-4.5c0.9-12.3,1.5-24.7,2.6-37c1.4-15,4.1-29.8,8.4-44.3c0.2-0.7,0.4-1.4,1.2-2.1c0.3,0.9,0.6,1.8,0.8,2.7
		c6.5,24.2,14.6,47.7,26.8,69.7c5.6,10.2,12.1,19.7,20.9,27.4c0.8,0.7,1.6,1.4,2.5,2c0.8,0.6,1.5,1.2,2.3,1.8
		C160.4,119.3,160.3,119.5,160.2,119.7z"/>
	<path id="XMLID_3_" class="st0" d="M15.7,115.9c2.1,0.3,4.2,0.6,6.3,1c22,4.4,44.1,8.5,66,13.2c10,2.1,19.9,5.3,29.8,8
		c0.2,0.1,0.4,0.1,0.5,0.2c6.9,2.9,6.9,2,6.8,9.6c0,4.6-2.7,7.8-7.4,9.2c-5.3,1.6-10.7,1-16,0.6c-7.3-0.6-14.5-1.4-21.8-1.9
		c-10.4-0.8-20.8-1.6-30.6-5.1c-3.2-1.1-6.1-2.8-9-4.6c-2.4-1.5-3.5-4-4.3-6.8c-0.9-3-2.2-6-4-8.6c-3.8-5.4-9.1-9.2-14.5-12.9
		c-0.7-0.5-1.3-0.9-2-1.4C15.6,116.2,15.6,116,15.7,115.9z"/>
</g>
</svg>
