<?xml version="1.0" encoding="utf-8"?>
<!-- Generator: Adobe Illustrator 19.0.0, SVG Export Plug-In . SVG Version: 6.00 Build 0)  -->
<svg version="1.1" id="Layer_1" xmlns="http://www.w3.org/2000/svg" xmlns:xlink="http://www.w3.org/1999/xlink" x="0px" y="0px"
	 viewBox="0 0 167 165" style="enable-background:new 0 0 167 165;" xml:space="preserve">
<style type="text/css">
	.st0{fill:#F48B8C;}
	.st1{fill:#EB4A4A;}
</style>
<g id="XMLID_51_">
	<path id="XMLID_54_" class="st0" d="M101.4,125.3c-2.1-4.1-4.9-11.1-3.9-19.3c12-6.6,20.4-21,20.4-37.8c0-23-15.6-41.6-34.8-41.6
		c-19.2,0-34.8,18.6-34.8,41.6c0,16.2,7.7,30.2,19,37c-0.1,5.1-0.8,14.5-4.4,20.1c-44.2-1.9-42.8,28.4-42.8,28.4H146
		C144.1,126.2,110.3,125.1,101.4,125.3z"/>
	<path id="XMLID_53_" class="st1" d="M40.4,23.2h83.7L117,50.3c0,0-36.1-9.1-68.8,0L40.4,23.2z"/>
	<path id="XMLID_52_" class="st1" d="M56.8,21c0,0,23.1-21.6,52.4,0"/>
</g>
</svg>
